<?xml version="1.0" standalone="no"?>
<!DOCTYPE svg PUBLIC "-//W3C//DTD SVG 20010904//EN"
 "http://www.w3.org/TR/2001/REC-SVG-20010904/DTD/svg10.dtd">
<svg version="1.0" xmlns="http://www.w3.org/2000/svg"
 width="625.000000pt" height="625.000000pt" viewBox="0 0 625.000000 625.000000"
 preserveAspectRatio="xMidYMid meet">

<g transform="translate(0.000000,625.000000) scale(0.100000,-0.100000)"
fill="#000000" stroke="none">
<path d="M2868 5610 c-790 -90 -1472 -524 -1880 -1196 -236 -390 -358 -829
-358 -1289 0 -1193 840 -2216 2010 -2449 314 -63 656 -63 970 0 227 45 392
101 605 204 1190 578 1722 1985 1214 3207 -237 570 -700 1049 -1259 1304 -215
98 -447 169 -675 205 -118 18 -512 27 -627 14z m617 -44 c547 -88 1038 -342
1410 -727 360 -373 588 -834 672 -1361 25 -159 25 -547 0 -706 -68 -424 -221
-791 -471 -1127 -107 -144 -341 -380 -477 -482 -342 -256 -720 -416 -1134
-479 -169 -27 -551 -27 -720 0 -336 51 -668 174 -949 351 -293 185 -584 473
-770 763 -333 520 -455 1147 -346 1772 80 464 313 915 655 1269 375 388 892
653 1418 725 62 9 126 18 142 20 71 10 475 -3 570 -18z"/>
<path d="M3000 5382 c-51 -5 -58 -18 -17 -35 19 -9 38 -25 42 -36 3 -12 13
-21 21 -21 11 0 13 9 8 43 -8 51 -10 53 -54 49z"/>
<path d="M3140 5380 c0 -7 7 -18 15 -24 8 -6 30 -74 48 -151 19 -76 38 -140
43 -142 11 -3 71 147 80 197 5 32 4 33 -9 17 -18 -22 -21 -18 -37 51 -11 50
-13 52 -45 52 -18 0 -47 3 -64 6 -22 5 -31 3 -31 -6z"/>
<path d="M2853 5373 c-28 -3 -43 -9 -43 -18 0 -7 4 -15 10 -17 14 -5 34 -248
21 -261 -6 -6 -11 -15 -11 -19 0 -11 117 -10 124 0 5 9 -11 259 -20 300 -3 13
-11 21 -22 20 -9 -1 -36 -3 -59 -5z"/>
<path d="M3356 5359 c-3 -8 -10 -72 -16 -144 -8 -96 -14 -132 -25 -138 -27
-14 -7 -25 59 -32 71 -8 94 -2 76 20 -17 20 -3 232 17 263 8 13 12 26 10 28
-3 3 -30 8 -61 11 -42 4 -57 2 -60 -8z"/>
<path d="M2623 5333 c-27 -5 -30 -18 -7 -31 21 -12 45 -113 32 -136 -13 -24
-5 -29 31 -21 58 13 87 79 60 138 -16 36 -69 59 -116 50z"/>
<path d="M3589 5311 c8 -14 3 -42 -19 -112 -38 -119 -38 -148 -2 -181 32 -30
68 -43 77 -28 4 6 2 17 -5 25 -9 10 -4 37 20 117 17 57 34 111 36 121 3 9 12
17 20 17 8 0 14 6 14 13 0 8 -25 21 -60 30 -80 23 -94 22 -81 -2z"/>
<path d="M2503 5307 c-40 -9 -57 -31 -32 -39 18 -6 72 -248 59 -263 -18 -22 2
-24 73 -8 43 10 67 20 67 29 0 8 -6 14 -13 14 -9 0 -24 47 -46 140 -36 153
-30 146 -108 127z"/>
<path d="M2991 5268 c-5 -15 -14 -29 -20 -32 -12 -8 30 -76 44 -72 12 3 7 107
-6 120 -5 5 -12 -1 -18 -16z"/>
<path d="M3787 5228 c4 -48 -33 -177 -60 -209 -9 -10 -26 -19 -37 -19 -11 0
-20 -7 -20 -15 0 -33 68 -6 91 36 6 11 21 57 35 102 17 59 32 88 51 104 l27
22 -28 10 c-54 21 -64 16 -59 -31z"/>
<path d="M3158 5185 c-3 -44 -10 -70 -23 -84 -23 -26 -18 -31 34 -38 43 -6 53
5 26 27 -11 9 -15 32 -15 81 0 87 -16 99 -22 14z"/>
<path d="M3945 5187 c7 -27 -87 -232 -113 -246 -22 -13 -10 -24 51 -50 l48
-21 18 43 c11 23 40 86 65 140 25 54 46 102 46 106 0 9 -91 51 -110 51 -6 0
-8 -10 -5 -23z"/>
<path d="M2123 5165 c-18 -8 -33 -20 -33 -28 0 -7 25 -47 55 -87 30 -40 55
-77 55 -81 0 -4 -9 -11 -20 -14 -11 -3 -20 -13 -20 -21 0 -17 14 -18 41 -3 26
13 49 -4 49 -37 0 -13 2 -24 4 -24 2 0 35 14 73 31 l68 30 -27 21 c-16 11 -64
67 -109 124 -44 57 -86 104 -92 104 -7 -1 -27 -7 -44 -15z"/>
<path d="M3040 5136 c-5 -14 -21 -32 -35 -42 -37 -24 -31 -34 19 -34 53 0 60
8 51 60 -8 45 -21 51 -35 16z"/>
<path d="M4084 5126 c9 -35 -86 -236 -114 -243 -33 -9 -17 -28 26 -31 123 -9
214 181 129 272 -31 33 -49 34 -41 2z"/>
<path d="M2100 5066 c0 -5 7 -53 16 -107 12 -75 13 -103 4 -119 -17 -31 -5
-36 40 -15 46 21 49 26 18 40 -19 8 -25 25 -38 97 -8 48 -21 93 -27 100 -7 6
-13 8 -13 4z"/>
<path d="M4254 5012 c8 -23 -111 -213 -142 -227 -12 -5 -22 -13 -22 -17 0 -7
113 -78 124 -78 3 0 6 10 6 22 0 28 128 228 146 228 30 0 12 27 -40 58 -62 36
-80 40 -72 14z"/>
<path d="M1835 4976 c-17 -13 -17 -14 11 -27 40 -19 155 -186 149 -216 -7 -32
9 -36 34 -9 56 59 24 184 -61 239 -46 30 -102 36 -133 13z"/>
<path d="M1748 4919 c-52 -34 -58 -44 -29 -52 26 -7 156 -195 153 -224 -2 -30
2 -29 60 8 32 21 47 37 44 46 -9 22 -169 253 -175 253 -3 0 -27 -14 -53 -31z"/>
<path d="M3132 4840 c0 -14 2 -19 5 -12 2 6 2 18 0 25 -3 6 -5 1 -5 -13z"/>
<path d="M3171 4834 c0 -11 3 -14 6 -6 3 7 2 16 -1 19 -3 4 -6 -2 -5 -13z"/>
<path d="M4576 4827 c7 -18 -163 -197 -187 -197 -31 0 -22 -22 29 -67 50 -45
77 -55 68 -25 -3 12 24 47 90 117 51 55 94 103 94 107 0 4 -17 23 -37 43 -39
35 -67 46 -57 22z"/>
<path d="M3194 4813 c-3 -10 -9 -27 -14 -38 l-9 -20 -1 20 c-1 18 -2 17 -15
-5 -13 -22 -14 -23 -15 -5 0 17 -2 18 -11 5 -8 -11 -12 -12 -16 -2 -8 19 -26
14 -18 -5 5 -14 4 -15 -6 -6 -10 10 -10 15 0 27 10 11 9 14 -1 12 -7 -1 -19
-5 -27 -10 -11 -7 -11 -10 0 -17 12 -8 11 -11 -1 -19 -13 -9 -11 -13 10 -30
14 -11 30 -20 37 -20 7 0 17 -8 22 -17 6 -10 11 -13 11 -7 0 6 11 16 24 22 14
6 25 19 24 29 0 10 7 37 15 61 9 23 12 42 6 42 -5 0 -12 -8 -15 -17z m-111
-77 c4 -10 1 -13 -8 -9 -8 3 -12 9 -9 14 7 12 11 11 17 -5z"/>
<path d="M3246 4805 c-9 -26 -7 -32 5 -12 6 10 9 21 6 23 -2 3 -7 -2 -11 -11z"/>
<path d="M1587 4782 c-34 -35 -34 -42 -1 -42 19 0 47 -20 102 -74 72 -70 76
-77 75 -116 -2 -49 20 -51 25 -2 4 39 -1 48 -63 114 -78 83 -88 97 -90 120 -2
32 -17 32 -48 0z"/>
<path d="M2861 4800 c0 -8 4 -24 9 -35 5 -13 9 -14 9 -5 0 8 -4 24 -9 35 -5
13 -9 14 -9 5z"/>
<path d="M2936 4794 c-3 -9 -6 -29 -6 -45 0 -18 -4 -28 -10 -24 -5 3 -10 1
-10 -4 0 -6 -9 -11 -20 -11 -11 0 -20 4 -20 9 0 5 -6 11 -14 14 -10 4 -12 0
-9 -14 3 -10 0 -19 -6 -19 -6 0 -11 8 -11 17 0 13 -3 14 -11 6 -9 -9 -4 -18
17 -37 23 -20 25 -25 9 -20 -20 5 -20 5 0 -7 30 -19 73 -18 92 3 12 13 17 37
17 83 1 63 -6 81 -18 49z"/>
<path d="M3400 4789 c0 -5 5 -7 10 -4 6 3 10 8 10 11 0 2 -4 4 -10 4 -5 0 -10
-5 -10 -11z"/>
<path d="M2820 4771 c0 -5 5 -13 10 -16 6 -3 10 -2 10 4 0 5 -4 13 -10 16 -5
3 -10 2 -10 -4z"/>
<path d="M3301 4764 c10 -13 10 -17 -2 -26 -11 -8 -11 -9 4 -4 11 3 17 0 17
-9 0 -8 -4 -15 -10 -15 -18 0 -11 -20 18 -48 20 -20 35 -26 60 -24 19 2 32 9
32 17 0 8 14 30 31 50 36 40 33 59 -2 22 -13 -13 -35 -27 -47 -30 -25 -6 -25
-4 -7 48 3 11 -2 7 -12 -10 l-17 -30 -7 35 c-4 21 -7 26 -8 13 0 -12 -6 -25
-13 -29 -8 -5 -9 0 -6 14 4 15 2 22 -8 22 -8 0 -14 5 -14 10 0 6 -5 10 -11 10
-8 0 -7 -5 2 -16z"/>
<path d="M2710 4740 c0 -5 5 -10 11 -10 5 0 7 5 4 10 -3 6 -8 10 -11 10 -2 0
-4 -4 -4 -10z"/>
<path d="M3420 4730 c-6 -11 -8 -20 -6 -20 3 0 10 9 16 20 6 11 8 20 6 20 -3
0 -10 -9 -16 -20z"/>
<path d="M3520 4739 c0 -5 5 -7 10 -4 6 3 10 8 10 11 0 2 -4 4 -10 4 -5 0 -10
-5 -10 -11z"/>
<path d="M4687 4744 c-4 -4 -7 -17 -7 -29 0 -27 -59 -85 -88 -85 -16 0 -22 -6
-22 -22 -1 -13 -14 -39 -30 -58 -30 -34 -35 -54 -24 -85 9 -22 61 -47 84 -40
23 7 26 21 8 27 -9 3 -3 16 15 37 30 36 32 44 17 72 -10 17 -7 19 28 19 79 0
108 74 54 139 -15 18 -30 29 -35 25z"/>
<path d="M1467 4662 c-51 -52 -56 -62 -30 -62 9 0 56 -38 104 -85 94 -92 109
-98 169 -66 39 20 46 44 15 49 -27 5 -195 172 -195 194 0 28 -12 22 -63 -30z"/>
<path d="M2700 4678 c0 -9 5 -20 10 -23 6 -3 10 -14 10 -23 -1 -12 -9 -7 -30
18 -17 19 -30 31 -30 26 0 -4 11 -21 25 -38 28 -34 34 -63 9 -54 -8 3 -12 2
-9 -4 11 -18 -22 -11 -49 11 -14 11 -26 16 -26 10 0 -6 5 -11 11 -11 7 0 9
-11 5 -31 -4 -22 -2 -29 7 -26 6 2 11 12 9 22 -2 11 2 15 10 13 7 -3 12 -12
10 -22 -2 -10 4 -16 15 -16 15 0 16 -2 3 -10 -12 -8 -10 -10 10 -10 48 1 81
45 79 107 -1 35 -2 36 -8 9 l-6 -29 -27 49 c-15 27 -28 41 -28 32z"/>
<path d="M3581 4658 c-9 -15 -16 -18 -18 -10 -9 24 -31 12 -38 -20 -7 -33 -7
-33 -15 -8 -8 24 -8 23 -9 -7 -1 -44 18 -82 45 -89 14 -4 44 4 79 21 56 28 71
41 35 31 -11 -3 -30 -9 -41 -12 -15 -4 -19 -3 -14 6 5 9 2 10 -13 6 -15 -5
-22 -2 -27 13 -7 22 11 65 23 57 5 -3 9 4 9 15 2 24 1 24 -16 -3z m-21 -28 c0
-5 -4 -10 -10 -10 -5 0 -10 5 -10 10 0 6 5 10 10 10 6 0 10 -4 10 -10z"/>
<path d="M3630 4649 c0 -5 5 -7 10 -4 6 3 10 8 10 11 0 2 -4 4 -10 4 -5 0 -10
-5 -10 -11z"/>
<path d="M2620 4646 c0 -2 7 -7 16 -10 8 -3 12 -2 9 4 -6 10 -25 14 -25 6z"/>
<path d="M3589 4613 c-13 -15 -16 -22 -7 -14 9 7 21 10 25 8 5 -3 9 3 9 14 0
10 -1 19 -1 19 -1 0 -12 -12 -26 -27z"/>
<path d="M2926 4617 c3 -10 9 -15 12 -12 3 3 0 11 -7 18 -10 9 -11 8 -5 -6z"/>
<path d="M3634 4598 l-19 -21 28 18 c28 18 33 25 19 25 -5 0 -17 -10 -28 -22z"/>
<path d="M4841 4568 c-5 -13 -45 -72 -90 -131 -45 -60 -81 -112 -81 -116 0 -4
6 -15 13 -25 12 -16 16 -15 68 7 45 20 64 38 107 96 34 45 60 71 73 71 10 0
19 3 19 6 0 10 -84 114 -93 114 -4 0 -11 -10 -16 -22z"/>
<path d="M3725 4560 c-3 -5 -1 -10 4 -10 6 0 11 5 11 10 0 6 -2 10 -4 10 -3 0
-8 -4 -11 -10z"/>
<path d="M2560 4550 c0 -5 5 -10 10 -10 6 0 10 5 10 10 0 6 -4 10 -10 10 -5 0
-10 -4 -10 -10z"/>
<path d="M2595 4540 c-3 -5 -1 -10 4 -10 6 0 11 5 11 10 0 6 -2 10 -4 10 -3 0
-8 -4 -11 -10z"/>
<path d="M2508 4533 c7 -3 16 -2 19 1 4 3 -2 6 -13 5 -11 0 -14 -3 -6 -6z"/>
<path d="M3132 4520 c0 -14 2 -19 5 -12 2 6 2 18 0 25 -3 6 -5 1 -5 -13z"/>
<path d="M3699 4515 c-1 -3 -3 -9 -4 -15 -1 -5 -3 -13 -4 -17 -1 -5 -6 -1 -12
7 -8 12 -9 11 -5 -5 7 -24 -8 -50 -23 -41 -6 4 -13 -3 -16 -16 -13 -62 17 -98
78 -90 20 2 37 8 37 13 0 5 -5 9 -11 9 -5 0 -7 5 -4 10 3 6 -3 10 -14 10 -24
0 -32 29 -13 52 12 15 11 16 -10 12 -20 -5 -21 -4 -8 8 14 12 26 68 15 68 -3
0 -6 -2 -6 -5z"/>
<path d="M1322 4466 c-18 -24 -32 -48 -32 -53 0 -4 52 -44 115 -88 74 -51 115
-86 115 -97 0 -30 16 -21 53 30 44 59 48 74 21 76 -29 3 -216 136 -222 158 -7
27 -15 23 -50 -26z"/>
<path d="M3196 4491 c-3 -5 0 -13 7 -19 15 -13 42 1 33 17 -9 13 -33 15 -40 2z"/>
<path d="M2520 4481 c0 -5 12 -19 28 -31 l27 -21 -25 6 c-24 6 -24 5 3 -10 15
-9 27 -20 27 -26 0 -7 -11 -9 -27 -5 l-28 6 25 -15 c24 -14 24 -14 -25 -16
l-50 -2 50 -7 c35 -4 45 -8 33 -14 -9 -4 -22 -5 -28 -1 -8 5 -11 1 -8 -10 1
-10 9 -20 17 -23 8 -3 11 0 7 7 -4 6 -3 11 3 11 5 0 18 3 28 7 16 6 16 4 -2
-17 l-20 -23 22 11 c12 7 30 23 41 37 11 13 22 22 25 19 3 -3 1 11 -3 31 -5
21 -14 43 -21 49 -9 8 -10 8 -5 -1 12 -21 -9 -15 -52 17 -23 17 -42 26 -42 21z"/>
<path d="M3057 4484 c-14 -14 -7 -25 13 -22 12 2 21 8 21 13 0 12 -24 18 -34
9z"/>
<path d="M2996 4457 c3 -10 9 -15 12 -12 3 3 0 11 -7 18 -10 9 -11 8 -5 -6z"/>
<path d="M3740 4460 c-8 -5 -10 -10 -5 -10 6 0 17 5 25 10 8 5 11 10 5 10 -5
0 -17 -5 -25 -10z"/>
<path d="M2497 4449 c7 -7 15 -10 18 -7 3 3 -2 9 -12 12 -14 6 -15 5 -6 -5z"/>
<path d="M2933 4443 c-20 -8 -15 -33 6 -33 19 0 35 23 24 34 -7 7 -13 7 -30
-1z"/>
<path d="M3318 4444 c-12 -11 4 -34 24 -34 13 0 18 6 16 17 -3 18 -29 29 -40
17z"/>
<path d="M3770 4430 c-12 -8 -11 -10 8 -10 12 0 22 5 22 10 0 13 -11 13 -30 0z"/>
<path d="M4927 4412 c-45 -22 -68 -43 -116 -106 -64 -83 -70 -96 -47 -115 11
-10 25 -8 65 9 40 18 62 37 109 99 76 100 75 98 59 121 -13 19 -14 19 -70 -8z"/>
<path d="M3246 4405 c-9 -26 -7 -32 5 -12 6 10 9 21 6 23 -2 3 -7 -2 -11 -11z"/>
<path d="M3780 4390 c-13 -8 -12 -10 3 -10 9 0 17 5 17 10 0 12 -1 12 -20 0z"/>
<path d="M3181 4344 c0 -11 3 -14 6 -6 3 7 2 16 -1 19 -3 4 -6 -2 -5 -13z"/>
<path d="M3400 4340 c0 -14 7 -20 21 -20 15 0 19 4 15 16 -3 9 -6 18 -6 20 0
2 -7 4 -15 4 -8 0 -15 -9 -15 -20z"/>
<path d="M3766 4352 c-3 -4 4 -9 15 -9 23 -2 25 3 4 10 -8 4 -16 3 -19 -1z"/>
<path d="M5028 4338 c-2 -16 -18 -30 -50 -45 -27 -13 -48 -28 -48 -34 0 -11
29 -5 72 17 15 8 41 14 58 14 36 0 36 3 9 41 -24 35 -37 37 -41 7z"/>
<path d="M2833 4335 c-3 -9 -3 -19 1 -22 7 -7 36 16 36 28 0 15 -30 10 -37 -6z"/>
<path d="M1201 4296 c-35 -51 -39 -70 -13 -62 10 4 78 -12 152 -34 131 -39
160 -46 160 -34 0 8 -112 147 -130 161 -21 17 -35 16 -20 -2 10 -12 10 -15 -3
-15 -9 0 -26 4 -39 9 -69 25 -75 24 -107 -23z"/>
<path d="M3510 4315 c-14 -8 -20 -14 -15 -14 6 0 21 6 35 14 14 8 21 14 15 14
-5 0 -21 -6 -35 -14z"/>
<path d="M2500 4310 c0 -5 5 -10 11 -10 5 0 7 5 4 10 -3 6 -8 10 -11 10 -2 0
-4 -4 -4 -10z"/>
<path d="M3820 4310 c-13 -8 -12 -10 3 -10 9 0 17 5 17 10 0 12 -1 12 -20 0z"/>
<path d="M3758 4303 c7 -3 16 -2 19 1 4 3 -2 6 -13 5 -11 0 -14 -3 -6 -6z"/>
<path d="M3111 4274 c0 -11 3 -14 6 -6 3 7 2 16 -1 19 -3 4 -6 -2 -5 -13z"/>
<path d="M3760 4260 c0 -5 5 -10 11 -10 5 0 7 5 4 10 -3 6 -8 10 -11 10 -2 0
-4 -4 -4 -10z"/>
<path d="M3163 4232 c-18 -22 -22 -23 -23 -9 0 22 -20 23 -20 0 0 -13 -3 -14
-12 -5 -7 7 -16 12 -22 12 -5 0 -6 -3 -3 -7 10 -10 -31 -35 -45 -27 -6 4 -8 3
-4 -4 3 -6 1 -12 -6 -15 -7 -2 -3 -3 8 -1 23 4 41 -22 21 -29 -8 -3 -5 -10 8
-21 l20 -16 -20 7 c-18 6 -18 5 -7 -10 8 -9 10 -22 6 -28 -4 -8 -3 -9 4 -5 18
11 14 -2 -8 -34 -11 -15 -17 -30 -14 -33 7 -6 -7 -34 -50 -100 -17 -27 -32
-44 -34 -38 -5 15 -42 14 -42 0 0 -7 7 -17 15 -23 13 -9 7 -25 -37 -111 -28
-55 -56 -103 -62 -107 -5 -4 -11 -18 -11 -31 -1 -13 -5 -33 -10 -43 -4 -10 -9
-23 -11 -29 -1 -5 -14 -46 -28 -90 -102 -322 -106 -700 -11 -1005 50 -159 105
-273 105 -217 0 25 129 273 192 367 84 128 203 273 283 348 63 59 78 82 53 82
-21 0 -208 -213 -303 -345 -69 -97 -119 -182 -185 -314 -28 -56 -52 -101 -55
-101 -18 0 -99 266 -121 397 -22 130 -22 394 0 523 28 165 87 363 122 406 15
19 16 19 10 -1 -6 -19 -5 -19 8 -2 7 9 16 17 20 17 3 0 6 -8 7 -17 0 -11 3
-13 6 -5 2 6 9 12 14 12 11 0 12 -47 0 -52 -4 -1 -5 -12 -1 -23 7 -16 9 -12
15 22 4 24 11 40 16 37 4 -2 6 -11 2 -19 -3 -9 1 -15 11 -15 18 0 22 15 6 25
-5 3 -10 15 -10 27 0 18 2 19 17 7 15 -13 15 -12 4 9 -15 28 -60 58 -83 54
-16 -3 -17 -1 -2 35 32 76 106 193 117 186 7 -3 9 -3 5 2 -4 4 0 20 10 34 10
14 31 54 47 89 19 41 31 58 37 50 6 -10 8 -9 8 3 0 17 34 32 45 21 13 -14 33
-9 28 6 -4 8 -2 13 3 10 5 -4 18 1 29 9 15 12 16 14 3 10 -12 -4 -15 -2 -11 9
3 7 0 14 -7 14 -10 0 -10 3 0 15 10 12 10 15 -1 15 -8 0 -4 8 10 19 l24 19
-27 -3 c-22 -3 -25 -1 -16 10 8 10 8 15 -1 21 -8 5 -9 3 -4 -6 5 -9 4 -11 -4
-6 -6 4 -9 16 -6 27 8 25 5 23 -22 -9z"/>
<path d="M3360 4250 c-8 -5 -10 -10 -5 -10 6 0 17 5 25 10 8 5 11 10 5 10 -5
0 -17 -5 -25 -10z"/>
<path d="M2797 4243 c-10 -9 -8 -43 2 -43 5 0 14 6 20 14 8 10 8 16 -2 25 -8
6 -17 8 -20 4z"/>
<path d="M2460 4225 c7 -9 15 -13 17 -11 7 7 -7 26 -19 26 -6 0 -6 -6 2 -15z"/>
<path d="M3727 4217 c-16 -19 -18 -20 -12 -3 6 19 5 19 -14 2 -10 -9 -21 -31
-23 -47 -7 -44 18 -70 69 -74 23 -2 52 -6 64 -10 19 -6 20 -5 9 7 -8 8 -23 15
-34 16 -25 1 -45 27 -41 50 2 9 4 20 4 25 1 4 13 5 29 2 22 -4 24 -4 7 4 -11
5 -16 10 -12 10 10 1 -11 41 -21 41 -4 -1 -15 -11 -25 -23z m37 -6 c3 -5 -3
-11 -13 -14 -14 -3 -18 -1 -14 9 6 16 19 18 27 5z"/>
<path d="M3462 4213 c5 -25 28 -28 28 -4 0 12 -6 21 -16 21 -9 0 -14 -7 -12
-17z"/>
<path d="M2505 4206 c18 -15 16 -16 -30 -11 l-50 4 53 -10 c54 -11 68 -27 30
-37 -21 -5 -21 -6 -2 -13 15 -5 10 -9 -23 -14 -24 -4 -43 -11 -43 -15 0 -4 17
-4 37 0 38 9 57 5 48 -10 -3 -5 -12 -7 -20 -3 -8 3 -15 1 -15 -4 0 -21 14 -21
43 -1 l29 21 -12 -24 c-12 -22 -12 -23 4 -10 35 29 45 63 31 99 -9 19 -21 32
-32 32 -10 0 -29 3 -43 6 -24 5 -24 5 -5 -10z"/>
<path d="M3800 4210 c-13 -8 -12 -10 3 -10 9 0 17 5 17 10 0 12 -1 12 -20 0z"/>
<path d="M1349 4145 c39 -29 61 -52 61 -65 0 -27 15 -25 39 6 28 35 26 44 -6
44 -16 0 -48 14 -73 30 -73 49 -91 36 -21 -15z"/>
<path d="M2978 4183 c7 -3 16 -2 19 1 4 3 -2 6 -13 5 -11 0 -14 -3 -6 -6z"/>
<path d="M3328 4183 c6 -2 18 -2 25 0 6 3 1 5 -13 5 -14 0 -19 -2 -12 -5z"/>
<path d="M3288 4173 c7 -3 16 -2 19 1 4 3 -2 6 -13 5 -11 0 -14 -3 -6 -6z"/>
<path d="M3825 4170 c-3 -5 -1 -10 4 -10 6 0 11 5 11 10 0 6 -2 10 -4 10 -3 0
-8 -4 -11 -10z"/>
<path d="M2428 4153 c6 -2 18 -2 25 0 6 3 1 5 -13 5 -14 0 -19 -2 -12 -5z"/>
<path d="M1120 4094 c-15 -27 -18 -40 -10 -48 8 -8 13 -8 18 1 10 17 59 34 77
27 32 -13 14 23 -20 39 -20 9 -37 17 -39 17 -2 0 -14 -16 -26 -36z"/>
<path d="M2938 4113 c6 -2 18 -2 25 0 6 3 1 5 -13 5 -14 0 -19 -2 -12 -5z"/>
<path d="M3268 4113 c7 -3 16 -2 19 1 4 3 -2 6 -13 5 -11 0 -14 -3 -6 -6z"/>
<path d="M2780 4091 c0 -11 5 -23 11 -27 16 -9 30 18 17 33 -15 19 -28 16 -28
-6z"/>
<path d="M3456 4081 c-4 -5 -3 -16 0 -25 5 -13 9 -14 20 -5 8 6 14 18 14 25 0
16 -26 19 -34 5z"/>
<path d="M3760 4060 c8 -5 20 -10 25 -10 6 0 3 5 -5 10 -8 5 -19 10 -25 10 -5
0 -3 -5 5 -10z"/>
<path d="M2468 4053 c-10 -2 -18 -9 -18 -14 0 -6 7 -6 18 -1 9 5 24 12 32 15
13 5 13 5 0 5 -8 0 -23 -2 -32 -5z"/>
<path d="M1201 4043 c2 -19 37 -68 47 -67 7 1 23 2 37 3 37 2 31 16 -19 45
-45 26 -67 32 -65 19z"/>
<path d="M4856 4028 c-13 -19 -14 -25 -2 -43 17 -26 49 -31 70 -10 20 21 20
39 0 59 -22 22 -50 20 -68 -6z"/>
<path d="M3785 4030 c-3 -5 -1 -10 4 -10 6 0 11 5 11 10 0 6 -2 10 -4 10 -3 0
-8 -4 -11 -10z"/>
<path d="M1057 3979 c-31 -53 -30 -63 6 -64 34 0 224 -104 234 -129 9 -19 12
-17 41 29 18 28 32 55 32 60 0 8 -267 155 -282 155 -1 0 -16 -23 -31 -51z"/>
<path d="M1340 4017 c0 -7 5 -18 12 -25 6 -6 12 -28 13 -49 3 -50 17 -52 40
-6 11 21 21 40 22 44 3 5 -69 49 -81 49 -3 0 -6 -6 -6 -13z"/>
<path d="M3750 4020 c0 -5 5 -10 10 -10 6 0 10 5 10 10 0 6 -4 10 -10 10 -5 0
-10 -4 -10 -10z"/>
<path d="M2989 4003 c-13 -16 -12 -17 4 -4 16 13 21 21 13 21 -2 0 -10 -8 -17
-17z"/>
<path d="M3680 3997 c-36 -31 -49 -67 -37 -94 6 -13 17 -23 26 -23 9 0 33 -11
53 -25 20 -14 39 -25 43 -25 13 0 -21 39 -40 45 -13 4 -16 8 -7 12 10 4 9 8
-5 19 -17 12 -16 13 12 15 30 1 30 1 5 9 -14 4 -19 8 -12 9 22 2 12 31 -13 37
-25 6 -25 7 -9 25 23 26 15 23 -16 -4z"/>
<path d="M2790 4000 c-8 -5 -10 -10 -5 -10 6 0 17 5 25 10 8 5 11 10 5 10 -5
0 -17 -5 -25 -10z"/>
<path d="M3470 3995 c14 -8 30 -14 35 -14 6 0 -1 6 -15 14 -14 8 -29 14 -35
14 -5 0 1 -6 15 -14z"/>
<path d="M3723 3995 c-9 -10 -8 -14 10 -19 27 -7 30 -4 14 17 -10 13 -14 14
-24 2z"/>
<path d="M5070 3994 c-66 -29 -110 -86 -110 -144 0 -32 16 -41 27 -14 8 21
207 114 244 114 36 0 37 12 3 39 -32 25 -111 28 -164 5z"/>
<path d="M2468 3993 c7 -3 16 -2 19 1 4 3 -2 6 -13 5 -11 0 -14 -3 -6 -6z"/>
<path d="M2574 3971 c5 -7 -4 -11 -23 -11 -38 0 -41 -20 -3 -21 24 0 25 -1 7
-9 -16 -7 -17 -9 -3 -9 21 -1 21 -38 -1 -66 -11 -14 -11 -16 -1 -7 8 6 21 12
30 12 13 -1 12 -3 -2 -14 -10 -7 -15 -16 -11 -19 12 -12 20 -7 31 18 6 14 17
25 23 25 7 0 5 -10 -5 -27 l-17 -28 20 24 c12 13 21 37 21 54 0 16 8 36 18 44
15 13 15 13 -4 4 -17 -8 -25 -7 -35 5 -16 19 -54 41 -45 25z"/>
<path d="M3412 3968 c-18 -18 -15 -28 8 -28 13 0 20 7 20 20 0 23 -10 26 -28
8z"/>
<path d="M2830 3962 c0 -4 5 -13 12 -20 18 -18 28 -15 28 8 0 13 -7 20 -20 20
-11 0 -20 -4 -20 -8z"/>
<path d="M2470 3955 c0 -2 9 -9 20 -15 16 -9 20 -8 20 5 0 8 -9 15 -20 15 -11
0 -20 -2 -20 -5z"/>
<path d="M3171 3934 c0 -11 3 -14 6 -6 3 7 2 16 -1 19 -3 4 -6 -2 -5 -13z"/>
<path d="M5240 3911 c-21 -27 -218 -113 -241 -106 -13 5 -19 1 -19 -10 0 -10
19 -24 47 -37 41 -18 53 -19 95 -10 88 21 146 74 155 143 6 44 -10 53 -37 20z"/>
<path d="M2475 3910 c-3 -5 -1 -10 4 -10 6 0 11 5 11 10 0 6 -2 10 -4 10 -3 0
-8 -4 -11 -10z"/>
<path d="M3788 3913 c7 -3 16 -2 19 1 4 3 -2 6 -13 5 -11 0 -14 -3 -6 -6z"/>
<path d="M3182 3890 c0 -14 2 -19 5 -12 2 6 2 18 0 25 -3 6 -5 1 -5 -13z"/>
<path d="M3240 3905 c0 -5 5 -17 10 -25 5 -8 10 -10 10 -5 0 6 -5 17 -10 25
-5 8 -10 11 -10 5z"/>
<path d="M2503 3883 c-13 -2 -23 -9 -23 -14 0 -12 10 -11 40 6 25 15 23 16
-17 8z"/>
<path d="M3132 3860 c0 -14 2 -19 5 -12 2 6 2 18 0 25 -3 6 -5 1 -5 -13z"/>
<path d="M3313 3859 c-1 -14 3 -19 15 -17 24 5 28 38 5 38 -12 0 -19 -8 -20
-21z"/>
<path d="M3041 3821 c-11 -7 -10 -11 7 -20 15 -8 23 -7 31 3 9 10 8 15 -5 20
-19 7 -16 8 -33 -3z"/>
<path d="M3186 3814 c-9 -23 -8 -24 13 -24 24 0 35 26 15 34 -21 8 -21 8 -28
-10z"/>
<path d="M1017 3798 c-20 -16 -48 -69 -41 -80 3 -4 14 -4 24 2 26 14 127 -24
135 -51 14 -43 35 -12 35 50 0 54 -38 91 -94 91 -23 0 -50 -6 -59 -12z"/>
<path d="M2560 3799 c0 -11 27 -12 34 -1 2 4 -4 9 -15 9 -10 1 -19 -2 -19 -8z"/>
<path d="M3573 3789 c-52 -15 -86 -88 -48 -103 8 -3 23 -21 32 -41 17 -35 33
-47 29 -21 -1 8 -7 20 -12 27 -24 30 -25 39 -7 32 15 -6 16 -4 6 9 -26 31 1
26 46 -9 46 -35 46 -35 8 -2 -42 39 -47 54 -14 43 22 -7 22 -6 3 15 -17 19
-17 21 -3 21 10 0 17 -5 17 -11 0 -5 5 -7 10 -4 21 13 8 25 -27 25 l-38 1 25
14 c28 16 20 17 -27 4z"/>
<path d="M2692 3783 c-6 -2 -10 -9 -7 -13 3 -5 -9 -5 -27 1 -44 12 -49 10 -14
-6 l30 -12 -37 -14 c-41 -14 -48 -25 -17 -25 11 0 20 3 20 7 0 4 10 9 23 12
19 5 18 2 -10 -23 -18 -16 -33 -33 -33 -37 0 -3 10 3 23 14 29 27 67 46 67 35
0 -15 -26 -33 -34 -24 -13 12 -2 -22 11 -36 7 -7 10 -20 7 -30 -5 -16 -5 -16
6 1 15 24 46 22 53 -4 6 -21 27 -18 27 4 0 7 -4 6 -10 -3 -8 -13 -10 -12 -10
3 0 9 4 17 9 17 18 0 23 43 11 81 -10 28 -21 41 -43 49 -16 5 -30 10 -31 9 -1
0 -7 -3 -14 -6z m21 -112 c-4 -16 -8 -19 -14 -10 -4 7 -3 19 3 26 14 18 19 12
11 -16z m54 -3 c-3 -7 -5 -2 -5 12 0 14 2 19 5 13 2 -7 2 -19 0 -25z m-17 13
c0 -5 -7 -12 -16 -15 -14 -5 -15 -4 -4 9 14 17 20 19 20 6z"/>
<path d="M3301 3770 c0 -14 28 -72 29 -59 0 4 -7 22 -15 40 -8 19 -14 27 -14
19z"/>
<path d="M3660 3769 c0 -5 5 -7 10 -4 6 3 10 8 10 11 0 2 -4 4 -10 4 -5 0 -10
-5 -10 -11z"/>
<path d="M2550 3729 c0 -5 5 -7 10 -4 6 3 10 8 10 11 0 2 -4 4 -10 4 -5 0 -10
-5 -10 -11z"/>
<path d="M2935 3709 c-4 -6 -5 -12 -2 -15 2 -3 7 2 10 11 7 17 1 20 -8 4z"/>
<path d="M5340 3707 c0 -21 -1 -22 -131 -61 -71 -22 -118 -31 -123 -25 -30 28
-34 -5 -10 -77 21 -62 22 -62 39 -38 9 14 55 33 142 59 70 21 130 40 132 42 8
5 -22 93 -35 104 -11 9 -14 8 -14 -4z"/>
<path d="M955 3688 c-17 -47 -35 -101 -35 -105 0 -3 9 -3 21 0 31 8 251 -74
257 -96 2 -10 9 -16 14 -15 11 4 58 113 58 135 0 16 -12 17 -26 3 -7 -7 -53 5
-143 40 -73 27 -135 50 -137 50 -3 0 -7 -6 -9 -12z"/>
<path d="M3597 3649 c12 -12 24 -21 27 -18 2 2 -8 13 -22 23 l-27 19 22 -24z"/>
<path d="M2645 3650 c-3 -5 -2 -10 4 -10 5 0 13 5 16 10 3 6 2 10 -4 10 -5 0
-13 -4 -16 -10z"/>
<path d="M3333 3622 c-25 -28 -28 -38 -13 -47 6 -3 10 -27 10 -53 0 -34 3 -43
10 -32 5 8 10 25 10 38 0 13 6 30 14 38 13 12 16 12 26 -3 9 -15 10 -14 4 7
l-6 25 23 -22 c26 -23 39 -21 57 12 10 18 11 18 12 2 0 -10 4 -16 9 -12 6 3
14 -3 20 -12 6 -10 11 -13 11 -7 0 18 -39 47 -65 49 -18 0 -21 -2 -13 -12 6
-8 8 -17 4 -20 -8 -8 -26 16 -26 35 0 6 10 12 23 12 21 1 21 1 3 12 -37 21
-89 17 -113 -10z"/>
<path d="M3125 3608 c-5 -5 -23 -20 -40 -34 -16 -13 -22 -21 -12 -18 21 7 21
-1 2 -56 -8 -24 -13 -45 -10 -48 2 -3 7 4 11 14 18 56 25 68 35 53 7 -12 9
-11 9 4 0 9 5 17 10 17 6 0 10 -25 10 -57 0 -67 8 -67 11 0 3 57 16 61 25 7 4
-22 11 -40 16 -40 5 0 7 9 4 20 -3 11 -8 29 -11 39 -3 11 -1 22 5 26 6 3 10
-3 10 -16 0 -18 3 -20 12 -11 9 9 8 16 -5 30 -20 22 -22 36 -4 27 6 -4 1 3
-12 14 -13 12 -29 21 -36 21 -7 0 -15 4 -17 9 -1 5 -7 4 -13 -1z"/>
<path d="M3550 3576 c0 -2 7 -9 15 -16 9 -7 15 -8 15 -2 0 5 -7 12 -15 16 -8
3 -15 4 -15 2z"/>
<path d="M2987 3539 c-3 -12 -2 -31 3 -42 7 -18 9 -14 9 21 1 46 -4 54 -12 21z"/>
<path d="M3361 3534 c0 -11 3 -14 6 -6 3 7 2 16 -1 19 -3 4 -6 -2 -5 -13z"/>
<path d="M2876 3505 c-3 -8 -1 -15 4 -15 6 0 10 7 10 15 0 8 -2 15 -4 15 -2 0
-6 -7 -10 -15z"/>
<path d="M3237 3506 c-4 -10 -3 -15 3 -11 6 3 10 -2 11 -12 0 -10 3 -13 5 -6
3 7 1 20 -4 29 -8 15 -9 15 -15 0z"/>
<path d="M3410 3494 c0 -8 5 -12 10 -9 6 4 8 11 5 16 -9 14 -15 11 -15 -7z"/>
<path d="M3102 3460 c0 -14 2 -19 5 -12 2 6 2 18 0 25 -3 6 -5 1 -5 -13z"/>
<path d="M3295 3440 c3 -5 8 -10 11 -10 2 0 4 5 4 10 0 6 -5 10 -11 10 -5 0
-7 -4 -4 -10z"/>
<path d="M3377 3304 c-14 -14 -7 -25 13 -22 12 2 21 8 21 13 0 12 -24 18 -34
9z"/>
<path d="M3223 3255 c-3 -9 -3 -19 1 -22 7 -7 36 16 36 28 0 15 -30 10 -37 -6z"/>
<path d="M3522 3248 c7 -19 38 -22 38 -4 0 10 -9 16 -21 16 -12 0 -19 -5 -17
-12z"/>
<path d="M3632 3153 c2 -10 11 -19 21 -21 24 -5 21 15 -4 28 -18 10 -20 9 -17
-7z"/>
<path d="M3117 3135 c-7 -16 8 -29 23 -20 15 9 12 35 -4 35 -8 0 -16 -7 -19
-15z"/>
<path d="M3076 3004 c-8 -20 1 -34 20 -34 18 0 18 24 0 39 -11 9 -15 8 -20 -5z"/>
<path d="M3662 2999 c1 -12 9 -24 16 -27 9 -3 13 3 10 19 -1 12 -9 24 -16 27
-9 3 -13 -3 -10 -19z"/>
<path d="M1014 2900 c-5 -5 -46 -12 -92 -16 l-82 -7 0 -33 c0 -31 3 -34 31
-34 29 0 171 20 177 26 6 4 -10 74 -17 74 -4 0 -11 -4 -17 -10z"/>
<path d="M3650 2865 c-9 -11 -10 -19 -3 -26 7 -7 14 -5 23 6 9 11 10 19 3 26
-7 7 -14 5 -23 -6z"/>
<path d="M5246 2873 c-3 -4 -6 -17 -6 -31 0 -20 3 -22 14 -13 9 8 32 9 79 2
74 -11 87 -16 87 -37 0 -8 5 -14 10 -14 6 0 10 6 10 13 0 27 -36 46 -98 53
-35 4 -69 13 -76 20 -8 7 -16 10 -20 7z"/>
<path d="M3122 2844 c1 -9 9 -19 16 -22 9 -3 13 2 10 14 -1 9 -9 19 -16 22 -9
3 -13 -2 -10 -14z"/>
<path d="M934 2789 c-17 -18 -16 -19 14 -19 37 0 47 12 22 27 -14 10 -21 8
-36 -8z"/>
<path d="M1030 2795 c0 -9 -7 -18 -15 -21 -21 -8 -19 -24 3 -24 30 0 45 16 37
39 -7 24 -25 28 -25 6z"/>
<path d="M850 2766 c0 -31 14 -40 48 -31 l27 7 -27 14 c-16 8 -28 19 -28 24 0
6 -4 10 -10 10 -5 0 -10 -11 -10 -24z"/>
<path d="M5225 2743 c-4 -27 -9 -56 -12 -65 -5 -19 7 -22 45 -12 27 8 29 24 2
24 -11 0 -20 5 -20 11 0 6 8 8 18 5 36 -10 137 -16 148 -9 12 9 34 47 34 60 0
4 -39 8 -86 9 -49 1 -90 6 -96 12 -20 20 -27 13 -33 -35z"/>
<path d="M1030 2733 c-14 -7 -58 -18 -98 -25 l-73 -12 7 -31 c3 -16 8 -32 10
-34 4 -4 100 14 157 30 29 8 37 15 36 32 -1 44 -11 54 -39 40z"/>
<path d="M3220 2735 c0 -10 7 -15 18 -13 21 4 19 22 -2 26 -10 2 -16 -3 -16
-13z"/>
<path d="M3535 2739 c-4 -6 -4 -13 -1 -16 8 -8 36 5 36 17 0 13 -27 13 -35 -1z"/>
<path d="M3375 2700 c-11 -18 5 -31 26 -20 11 6 17 15 14 21 -8 12 -32 12 -40
-1z"/>
<path d="M1055 2641 c-16 -13 -142 -41 -159 -35 -24 9 -19 -10 9 -36 21 -19
32 -22 76 -18 41 4 58 11 76 32 32 37 30 87 -2 57z"/>
<path d="M5207 2633 c-4 -3 -7 -17 -7 -29 0 -24 16 -31 110 -49 19 -4 45 -13
57 -21 21 -13 23 -12 32 24 15 50 14 62 -4 56 -8 -3 -46 1 -84 10 -77 18 -94
19 -104 9z"/>
<path d="M1017 2530 c-43 -14 -82 -32 -87 -40 -9 -13 -14 -70 -7 -70 1 0 19 8
39 19 20 10 64 24 98 32 61 13 62 14 56 43 -4 17 -10 33 -14 36 -4 3 -42 -6
-85 -20z"/>
<path d="M5190 2546 c0 -15 21 -26 48 -26 13 0 11 5 -8 20 -30 23 -40 25 -40
6z"/>
<path d="M5160 2465 c-13 -34 -6 -45 29 -45 60 0 91 -12 92 -34 l0 -21 16 22
c12 18 19 21 34 12 16 -8 21 -6 28 13 24 66 26 63 -42 65 -34 1 -81 4 -105 8
-39 6 -43 4 -52 -20z"/>
<path d="M1120 2430 c0 -5 -30 -18 -67 -30 -59 -18 -68 -19 -88 -6 -26 17 -41
10 -24 -11 15 -17 62 -16 123 2 28 8 58 13 68 9 19 -6 22 3 12 30 -7 17 -24
22 -24 6z"/>
<path d="M5190 2406 c0 -2 19 -16 43 -31 23 -15 52 -39 64 -53 l22 -26 9 24
c8 22 6 26 -17 31 -14 3 -44 18 -65 32 -35 25 -56 33 -56 23z"/>
<path d="M1140 2366 c-21 -19 -149 -68 -161 -61 -13 9 -11 -7 5 -47 l15 -35
73 35 c40 19 83 35 96 35 24 0 24 4 1 65 -10 26 -10 26 -29 8z"/>
<path d="M5106 2328 c-9 -37 -7 -40 16 -24 12 9 31 16 42 16 26 0 9 17 -25 25
-22 5 -27 2 -33 -17z"/>
<path d="M5205 2311 c-11 -5 -29 -18 -39 -30 -20 -22 -51 -28 -61 -11 -11 17
-25 11 -25 -10 0 -26 43 -70 68 -70 11 0 36 14 57 30 44 35 53 36 71 13 12
-16 13 -15 14 14 0 22 -8 37 -26 52 -29 23 -30 23 -59 12z"/>
<path d="M1185 2254 c-9 -14 -17 -15 -50 -5 -35 9 -42 8 -71 -14 -18 -14 -37
-25 -43 -25 -15 0 -13 -20 7 -58 l18 -32 53 54 c53 54 74 60 109 33 9 -7 12
-4 12 10 0 10 -6 27 -12 36 -12 16 -14 16 -23 1z"/>
<path d="M5245 2197 c-16 -5 -37 -12 -45 -14 -13 -4 -13 -5 0 -12 41 -23 57
-22 69 5 14 32 14 33 -24 21z"/>
<path d="M5025 2140 c-4 -12 -5 -22 -3 -23 1 -1 18 -10 36 -20 18 -11 35 -17
37 -15 2 1 -12 20 -30 41 -31 36 -34 37 -40 17z"/>
<path d="M1204 2099 c-27 -23 -50 -36 -52 -30 -2 6 -10 11 -18 11 -12 0 -12
-4 -4 -21 10 -17 8 -21 -9 -26 -12 -3 -21 -10 -21 -15 0 -11 29 -68 35 -68 2
0 26 20 52 44 26 24 61 54 76 67 26 22 28 27 16 52 -7 15 -16 27 -20 27 -4 0
-29 -19 -55 -41z"/>
<path d="M1142 2115 c-29 -7 -62 -11 -73 -8 -18 5 -19 3 -8 -21 13 -28 29 -35
29 -12 0 8 22 18 60 26 33 7 63 17 66 21 7 11 -8 10 -74 -6z"/>
<path d="M4987 2076 c-10 -25 53 -71 117 -85 42 -9 61 -10 69 -2 18 18 -32 60
-93 77 -30 9 -62 18 -71 20 -9 3 -19 -2 -22 -10z"/>
<path d="M1705 2070 c-3 -6 1 -17 9 -26 23 -22 23 -285 1 -304 -28 -23 -15
-30 55 -30 l70 0 0 185 0 185 -64 0 c-36 0 -68 -5 -71 -10z"/>
<path d="M1870 2062 c0 -13 9 -22 26 -26 14 -4 33 -20 42 -36 24 -41 37 -32
37 26 l0 49 -52 3 c-47 3 -53 1 -53 -16z"/>
<path d="M2025 2070 c-4 -6 -1 -17 5 -25 17 -20 18 -297 1 -303 -6 -2 -11 -10
-11 -18 0 -11 16 -14 70 -14 l70 0 0 185 0 185 -64 0 c-36 0 -68 -5 -71 -10z"/>
<path d="M2190 2065 c0 -9 7 -23 15 -31 12 -12 15 -43 15 -143 0 -102 -3 -131
-15 -141 -20 -17 -19 -40 3 -40 29 0 78 36 103 76 47 76 25 217 -40 264 -41
28 -81 36 -81 15z"/>
<path d="M2375 2069 c-4 -5 0 -18 9 -28 23 -25 24 -282 1 -301 -29 -24 -14
-30 70 -30 84 0 99 6 70 30 -23 19 -22 276 1 301 26 29 8 39 -71 39 -41 0 -77
-5 -80 -11z"/>
<path d="M2638 2062 c-31 -18 -58 -67 -58 -104 0 -42 36 -85 102 -120 73 -38
87 -69 46 -99 -17 -13 -20 -21 -12 -29 16 -16 75 10 102 44 56 72 32 142 -67
196 -81 44 -93 61 -63 93 12 13 22 26 22 30 0 13 -45 6 -72 -11z"/>
<path d="M2730 2068 c0 -6 12 -19 26 -31 15 -11 33 -36 41 -55 22 -52 37 -26
34 58 -1 35 -1 35 -51 37 -28 0 -50 -3 -50 -9z"/>
<path d="M2895 2070 c-4 -6 -1 -17 5 -25 16 -19 18 -297 2 -303 -7 -2 -12 -10
-12 -18 0 -11 18 -14 79 -14 82 0 102 8 76 30 -12 10 -15 41 -15 156 0 122 2
144 16 152 9 5 14 14 10 21 -9 14 -152 15 -161 1z"/>
<path d="M3245 2069 c-4 -5 0 -18 9 -28 23 -25 24 -272 1 -295 -29 -28 -17
-36 55 -36 l70 0 0 185 0 185 -64 0 c-36 0 -68 -5 -71 -11z"/>
<path d="M3406 2071 c-4 -6 2 -18 14 -28 25 -22 29 -103 5 -123 -8 -7 -15 -18
-15 -25 0 -7 7 -15 15 -19 11 -4 15 -21 15 -65 0 -50 -3 -62 -20 -71 -38 -21
-22 -33 37 -28 68 6 103 37 103 94 0 34 -35 84 -60 84 -19 0 -10 15 19 31 50
29 49 100 -3 134 -32 21 -101 31 -110 16z"/>
<path d="M3705 2068 c-3 -7 5 -60 18 -118 14 -58 22 -108 20 -112 -2 -5 -15
-8 -29 -8 -15 0 -24 -6 -24 -15 0 -10 10 -15 34 -15 28 0 34 -4 38 -25 3 -14
1 -28 -3 -31 -5 -3 -9 -12 -9 -20 0 -11 17 -14 80 -14 62 0 80 3 80 14 0 8 -4
16 -9 18 -5 2 -27 77 -48 168 l-39 165 -52 3 c-36 2 -54 -1 -57 -10z"/>
<path d="M3945 2070 c-4 -7 -2 -17 4 -23 14 -14 15 -307 1 -307 -5 0 -10 -7
-10 -15 0 -12 16 -15 85 -15 66 0 85 3 85 14 0 8 -7 16 -15 20 -12 4 -15 36
-17 168 l-3 163 -62 3 c-38 2 -64 -1 -68 -8z"/>
<path d="M4105 2070 c-4 -6 0 -19 9 -29 22 -24 22 -129 1 -137 -8 -4 -15 -12
-15 -19 0 -7 7 -15 15 -19 10 -4 15 -20 15 -50 0 -25 4 -56 10 -70 19 -52 88
-59 130 -14 26 28 26 42 0 35 -17 -4 -20 0 -20 34 0 41 -26 79 -55 79 -23 0
-18 16 10 28 50 23 58 87 18 132 -31 33 -104 52 -118 30z"/>
<path d="M4314 2069 c-4 -7 1 -16 10 -21 14 -8 16 -29 16 -142 0 -155 8 -175
85 -196 56 -16 80 -3 52 28 -14 16 -17 42 -17 158 0 90 4 144 11 151 6 6 8 16
5 22 -10 15 -153 14 -162 0z"/>
<path d="M4536 2071 c-3 -4 3 -16 14 -26 18 -16 20 -31 20 -142 0 -110 -2
-125 -20 -143 -11 -11 -24 -20 -30 -20 -5 0 -10 -9 -10 -19 0 -27 34 -16 65
21 24 28 25 36 25 147 0 104 2 121 21 145 11 14 17 30 14 36 -8 12 -92 13 -99
1z"/>
<path d="M4941 1992 l-20 -39 100 -23 c76 -18 102 -21 111 -12 19 19 -28 59
-91 78 -31 9 -61 20 -68 26 -8 7 -17 -2 -32 -30z"/>
<path d="M1250 2000 c-15 -15 -20 -33 -20 -76 0 -51 -2 -56 -20 -51 -24 6 -35
-7 -17 -21 28 -23 62 -24 91 -1 26 20 28 27 23 69 -6 49 5 72 29 63 17 -6 18
9 2 25 -19 19 -66 14 -88 -8z"/>
<path d="M3670 1937 c-25 -104 -50 -174 -70 -192 -31 -28 -24 -35 30 -35 51 0
61 10 36 35 -15 15 -11 42 18 140 18 57 20 91 7 99 -5 3 -15 -18 -21 -47z"/>
<path d="M1170 1952 c-22 -17 -22 -20 -7 -48 14 -24 16 -26 17 -8 0 11 7 29
15 40 28 37 13 47 -25 16z"/>
<path d="M1347 1948 c-2 -13 -8 -32 -12 -42 -8 -19 -7 -19 22 -1 27 16 29 20
19 41 -14 30 -22 30 -29 2z"/>
<path d="M1898 1946 c-6 -14 -15 -26 -20 -26 -14 0 -9 -37 7 -50 8 -7 15 -19
15 -26 0 -8 7 -14 15 -14 12 0 15 14 15 64 0 71 -13 92 -32 52z"/>
<path d="M4887 1902 c-22 -24 -21 -32 1 -32 20 0 62 -35 62 -50 0 -6 7 -10 16
-10 9 0 29 -8 45 -17 27 -16 29 -16 49 2 21 19 27 50 10 60 -5 3 -10 1 -10 -5
0 -7 -6 -8 -19 0 -11 5 -31 10 -46 10 -14 0 -24 4 -21 8 9 15 -25 52 -48 52
-13 0 -30 -8 -39 -18z"/>
<path d="M1400 1894 c0 -13 -130 -104 -148 -104 -14 0 -7 -17 23 -54 15 -19
15 -19 37 1 39 35 116 83 132 83 9 0 16 4 16 8 0 12 -59 78 -60 66z"/>
<path d="M4836 1835 c-20 -30 -20 -45 -2 -45 8 0 45 -23 82 -51 l67 -51 23 29
c26 31 29 43 13 43 -6 0 -43 23 -83 50 -40 28 -75 50 -78 50 -3 0 -13 -11 -22
-25z"/>
<path d="M2582 1778 l3 -63 35 -1 c19 0 43 -4 53 -8 13 -6 17 -4 17 12 0 11
-8 22 -20 25 -10 3 -29 26 -42 51 -32 67 -50 61 -46 -16z"/>
<path d="M1942 1795 c-7 -14 -25 -34 -42 -43 -47 -27 -38 -42 25 -42 l55 0 0
55 c0 61 -18 75 -38 30z"/>
<path d="M4734 1709 c-17 -19 -17 -21 -2 -30 10 -5 20 -26 24 -45 5 -26 16
-41 38 -54 17 -10 37 -24 44 -31 11 -9 20 -5 43 17 16 15 29 30 29 33 0 4 -29
17 -64 29 -75 27 -91 42 -82 77 8 30 -4 32 -30 4z"/>
<path d="M1324 1675 c-4 -17 -11 -24 -20 -21 -8 3 -14 1 -14 -4 0 -16 47 -23
70 -10 28 15 24 54 -7 58 -17 3 -24 -3 -29 -23z"/>
<path d="M1540 1638 c-19 -23 -51 -53 -71 -68 l-36 -26 24 -28 25 -29 61 59
c90 87 89 85 65 112 -12 12 -24 22 -27 21 -3 0 -22 -19 -41 -41z"/>
<path d="M4657 1632 l-26 -27 65 -54 c36 -29 69 -62 73 -72 6 -18 10 -16 41
16 23 23 29 35 19 35 -9 0 -44 29 -78 65 -35 36 -64 65 -65 65 -1 0 -14 -12
-29 -28z"/>
<path d="M1630 1597 c0 -17 -100 -107 -119 -107 -18 0 -13 -18 9 -30 53 -28
144 43 138 108 -3 34 -28 60 -28 29z"/>
<path d="M1691 1538 c-5 -13 -33 -49 -63 -80 l-55 -57 29 -28 c24 -23 30 -25
38 -13 24 40 105 130 117 130 22 0 15 14 -22 43 l-35 28 -9 -23z"/>
<path d="M4560 1536 l-22 -25 51 -36 c41 -29 50 -42 45 -57 -5 -17 -3 -18 15
-9 17 9 23 8 33 -8 11 -18 13 -18 45 7 33 27 42 42 23 42 -6 0 -46 25 -89 55
l-78 55 -23 -24z"/>
<path d="M4570 1460 c0 -6 10 -30 22 -53 11 -23 24 -52 27 -65 l7 -24 18 21
c15 17 16 21 4 21 -8 0 -25 23 -38 51 -24 50 -40 70 -40 49z"/>
<path d="M1746 1438 c-20 -28 -20 -45 -1 -82 21 -40 19 -66 -5 -66 -29 0 -25
-18 6 -26 59 -15 99 39 75 100 -25 60 -25 67 -2 73 35 9 24 23 -18 23 -30 0
-44 -6 -55 -22z"/>
<path d="M4436 1432 c-3 -5 17 -33 45 -63 28 -30 53 -66 56 -81 7 -36 18 -35
33 2 16 40 6 76 -35 117 -32 32 -86 46 -99 25z"/>
<path d="M1850 1388 c0 -40 0 -41 20 -23 24 21 25 32 6 51 -22 22 -26 17 -26
-28z"/>
<path d="M4380 1390 c-14 -11 -40 -27 -57 -36 -35 -17 -43 -34 -18 -34 21 0
87 -103 85 -132 -3 -36 0 -44 10 -28 17 27 11 54 -25 109 -39 59 -44 81 -17
81 15 0 80 -76 112 -129 6 -11 12 -10 34 4 14 10 26 22 26 27 0 11 -112 157
-120 157 -3 0 -16 -8 -30 -19z"/>
<path d="M1683 1356 l-23 -28 23 -18 c22 -18 22 -18 25 6 2 13 2 34 0 46 -3
22 -4 22 -25 -6z"/>
<path d="M1903 1367 c0 -16 -70 -128 -89 -143 -12 -10 -9 -16 21 -34 20 -12
37 -21 39 -19 1 2 7 15 14 29 21 44 53 94 75 117 11 13 19 24 16 26 -21 16
-60 37 -67 37 -5 0 -9 -6 -9 -13z"/>
<path d="M2010 1305 c0 -10 -16 -23 -40 -33 -30 -13 -43 -25 -51 -52 -6 -19
-16 -41 -22 -48 -5 -7 -8 -14 -6 -15 29 -22 71 -48 73 -46 1 2 8 37 15 76 14
79 16 82 55 85 30 3 29 15 -2 36 -20 13 -22 13 -22 -3z"/>
<path d="M4223 1289 c-32 -20 -43 -39 -24 -39 6 0 26 -27 47 -60 38 -62 64
-78 103 -65 23 7 29 35 9 35 -16 0 -88 110 -88 133 0 22 -8 21 -47 -4z"/>
<path d="M2075 1260 c3 -5 -11 -41 -31 -80 l-37 -71 19 -26 c25 -33 44 -40 44
-16 0 19 54 128 76 154 12 13 9 18 -21 32 -40 19 -59 22 -50 7z"/>
<path d="M4123 1230 c-23 -9 -32 -30 -13 -30 13 0 38 -52 33 -67 -3 -7 0 -13
6 -13 6 0 17 -13 25 -29 20 -37 43 -45 72 -26 26 17 32 45 11 45 -7 0 -20 9
-30 20 -9 11 -24 20 -34 20 -13 0 -14 3 -5 12 17 17 15 35 -8 58 -22 22 -25
23 -57 10z"/>
<path d="M2190 1194 c0 -38 -50 -125 -79 -135 -29 -12 -21 -24 12 -16 16 5 32
25 52 67 16 33 37 62 47 66 25 8 23 19 -7 32 -23 11 -25 10 -25 -14z"/>
<path d="M4048 1194 c-29 -15 -35 -28 -18 -39 14 -9 70 -121 70 -140 0 -21 19
-19 60 7 24 15 30 23 19 25 -8 2 -31 35 -49 74 -19 39 -39 74 -45 79 -6 5 -22
2 -37 -6z"/>
<path d="M2240 1143 c-25 -32 -21 -63 16 -106 29 -35 30 -47 4 -54 -26 -7 -15
-23 16 -23 31 0 64 33 64 66 0 14 -12 41 -26 60 -25 32 -27 64 -4 64 5 0 10 5
10 10 0 6 -13 10 -29 10 -20 0 -36 -9 -51 -27z"/>
<path d="M2331 1144 c0 -5 6 -25 14 -44 l13 -35 11 28 c13 34 14 47 2 47 -5 0
-16 3 -25 6 -9 3 -16 2 -15 -2z"/>
<path d="M3928 1143 c-25 -6 -22 -23 13 -76 26 -40 29 -50 18 -63 -11 -14 -10
-15 11 -12 20 2 26 -2 28 -20 3 -18 8 -22 20 -17 9 4 29 12 44 17 l28 10 -34
41 c-18 23 -46 61 -61 85 -27 41 -33 44 -67 35z"/>
<path d="M2400 1104 c0 -21 -40 -134 -53 -152 -12 -16 -2 -26 39 -39 l30 -11
13 57 c6 31 21 74 31 95 11 22 20 41 20 42 0 3 -62 24 -71 24 -5 0 -9 -7 -9
-16z"/>
<path d="M3768 1084 c-4 -3 3 -15 14 -26 14 -14 18 -28 15 -46 -3 -17 1 -30
11 -38 10 -7 16 -26 16 -48 0 -20 5 -36 11 -36 23 0 55 32 55 55 0 25 -23 55
-43 55 -8 0 -7 4 1 12 7 7 12 21 12 33 0 12 -5 26 -12 33 -12 12 -70 17 -80 6z"/>
<path d="M3710 1069 c-32 -13 -35 -16 -23 -31 13 -17 43 -127 43 -157 0 -18 4
-21 20 -17 11 3 29 8 39 11 16 5 18 11 11 33 -5 15 -18 60 -30 100 -11 39 -24
72 -28 71 -4 0 -18 -5 -32 -10z"/>
<path d="M3914 1000 c1 -80 6 -90 36 -69 11 8 12 12 3 15 -7 3 -15 32 -19 65
-10 87 -21 80 -20 -11z"/>
<path d="M2191 1047 c-14 -36 -14 -37 7 -53 24 -19 35 -17 27 4 -4 9 -11 31
-15 47 l-7 30 -12 -28z"/>
<path d="M2661 1014 c-12 -15 -21 -35 -21 -45 0 -18 54 -79 71 -79 16 0 10
-32 -8 -46 -16 -12 -15 -13 10 -14 34 0 67 32 67 66 0 18 -13 38 -42 65 -34
30 -40 41 -30 51 17 17 15 28 -7 28 -11 0 -29 -12 -40 -26z"/>
<path d="M3533 1033 c-32 -4 -42 -16 -24 -27 9 -6 34 -145 29 -167 -2 -11 7
-13 37 -11 22 2 41 5 42 6 1 0 -5 26 -13 56 -8 30 -15 76 -16 103 -1 26 -7 46
-13 45 -5 0 -25 -3 -42 -5z"/>
<path d="M2741 1024 c33 -71 49 -82 49 -34 0 17 -4 30 -9 30 -5 0 -17 3 -27 7
-9 3 -15 2 -13 -3z"/>
<path d="M3443 1011 c-21 -6 -21 -7 8 -35 l29 -29 0 31 c0 35 -6 41 -37 33z"/>
<path d="M2829 981 c-24 -25 -29 -37 -29 -81 0 -41 5 -56 25 -75 30 -31 49
-33 40 -5 -8 25 13 160 27 178 22 26 -34 11 -63 -17z"/>
<path d="M2914 995 c8 -21 -13 -167 -26 -182 -19 -23 29 -15 57 10 32 27 45
104 25 141 -15 29 -66 56 -56 31z"/>
<path d="M3360 990 c-40 -40 -21 -90 45 -116 43 -16 46 -19 39 -47 -5 -23 -3
-28 7 -22 33 19 49 40 49 64 -1 36 -20 58 -66 74 -33 11 -39 16 -37 40 2 32
-10 34 -37 7z"/>
<path d="M2996 991 c-4 -5 -1 -13 5 -16 10 -7 6 -101 -7 -162 -4 -21 -1 -23
36 -23 l40 0 0 89 c0 50 5 93 10 96 6 4 8 10 6 14 -7 11 -84 13 -90 2z"/>
<path d="M3170 994 c-12 -4 -14 -19 -10 -88 6 -93 18 -116 61 -116 29 0 38 13
18 25 -6 4 -9 41 -8 93 2 85 2 87 -22 89 -13 0 -31 -1 -39 -3z"/>
<path d="M3286 983 c4 -10 10 -47 12 -81 3 -56 1 -67 -19 -88 -16 -18 -19 -24
-8 -24 30 0 39 24 39 101 0 43 5 81 10 84 19 12 10 25 -16 25 -21 0 -25 -3
-18 -17z"/>
<path d="M2464 916 c-4 -9 -1 -23 5 -30 10 -11 8 -17 -6 -25 -17 -10 -16 -10
3 -11 26 0 57 33 52 57 -4 23 -46 30 -54 9z"/>
<path d="M2630 898 c0 -7 -3 -24 -7 -37 -4 -18 -3 -22 8 -19 8 3 22 1 33 -4
10 -6 16 -6 14 -1 -3 4 -11 23 -18 41 -14 32 -30 43 -30 20z"/>
<path d="M3350 858 c1 -40 13 -58 41 -58 16 0 29 2 29 4 0 6 -60 66 -66 66 -2
0 -4 -6 -4 -12z"/>
<path d="M3107 825 l-28 -35 31 0 c28 0 30 3 30 35 0 19 -1 35 -2 35 -2 0 -16
-16 -31 -35z"/>
</g>
</svg>
